<svg width="20" height="20" viewBox="0 0 20 20" fill="none" xmlns="http://www.w3.org/2000/svg">
<path fill-rule="evenodd" clip-rule="evenodd" d="M6.96429 1.25C6.65066 1.25 6.36003 1.41455 6.19867 1.68349L4.3159 4.82143H2.32143C1.70574 4.82143 1.11528 5.06601 0.67993 5.50136C0.244579 5.93671 0 6.52717 0 7.14286V16.4286C0 17.0443 0.244579 17.6347 0.67993 18.07C1.11528 18.5054 1.70574 18.75 2.32143 18.75H17.6786C18.2943 18.75 18.8847 18.5054 19.32 18.07C19.7554 17.6347 20 17.0443 20 16.4286V7.14286C20 6.52717 19.7554 5.93671 19.32 5.50136C18.8847 5.06601 18.2943 4.82143 17.6786 4.82143H15.6841L13.8013 1.68349C13.64 1.41455 13.3493 1.25 13.0357 1.25H6.96429ZM5.58704 6.17366L7.46981 3.03571H12.5302L14.413 6.17366C14.5743 6.44259 14.865 6.60714 15.1786 6.60714H17.6786C17.8207 6.60714 17.9569 6.66359 18.0574 6.76406C18.1579 6.86451 18.2143 7.00077 18.2143 7.14286V16.4286C18.2143 16.5707 18.1579 16.7069 18.0574 16.8074C17.9569 16.9079 17.8207 16.9643 17.6786 16.9643H2.32143C2.17934 16.9643 2.04309 16.9079 1.94261 16.8074C1.84216 16.7069 1.78571 16.5707 1.78571 16.4286V7.14286C1.78571 7.00077 1.84216 6.86451 1.94261 6.76406C2.04309 6.66359 2.17934 6.60714 2.32143 6.60714H4.82143C5.13506 6.60714 5.42569 6.44259 5.58704 6.17366ZM13.5714 11.1161C13.5714 13.0885 11.9724 14.6874 10 14.6874C8.02756 14.6874 6.42857 13.0885 6.42857 11.1161C6.42857 9.14363 8.02756 7.54464 10 7.54464C11.9724 7.54464 13.5714 9.14363 13.5714 11.1161Z" fill="#5E5E5E"/>
</svg>
