<svg width="20" height="20" viewBox="0 0 20 20" fill="none" xmlns="http://www.w3.org/2000/svg">
<g clip-path="url(#clip0_607_147)">
<path d="M1.42847 9.91416V17.1429C1.42847 17.9319 2.06807 18.5714 2.85704 18.5714H17.1428C17.9318 18.5714 18.5713 17.9319 18.5713 17.1429V9.91416C18.5713 9.51373 18.4033 9.13167 18.108 8.86109L9.99989 1.42859L1.89172 8.86109C1.59654 9.13167 1.42847 9.51373 1.42847 9.91416Z" fill="#5E5E5E"/>
<path fill-rule="evenodd" clip-rule="evenodd" d="M10.6033 0.77039C10.2619 0.457477 9.73796 0.457477 9.3966 0.77039L1.28843 8.20289C0.808752 8.64259 0.535645 9.26342 0.535645 9.91413V17.1428C0.535645 18.425 1.57499 19.4643 2.85707 19.4643H17.1428C18.4249 19.4643 19.4642 18.425 19.4642 17.1428V9.91413C19.4642 9.26342 19.1911 8.64259 18.7115 8.20289L10.6033 0.77039ZM2.49507 9.51923L9.99993 2.63979L17.5048 9.51923C17.6155 9.62071 17.6785 9.76398 17.6785 9.91413V17.1428C17.6785 17.4387 17.4386 17.6786 17.1428 17.6786H11.4285V12.8571C11.4285 12.0681 10.7889 11.4286 9.99993 11.4286C9.21096 11.4286 8.57136 12.0681 8.57136 12.8571V17.6786H2.85707C2.5612 17.6786 2.32136 17.4387 2.32136 17.1428V9.91413C2.32136 9.76398 2.38439 9.62071 2.49507 9.51923Z" fill="white"/>
</g>
<defs>
<clipPath id="clip0_607_147">
<rect width="20" height="20" fill="white"/>
</clipPath>
</defs>
</svg>
