<svg width="22" height="22" viewBox="0 0 22 22" fill="none" xmlns="http://www.w3.org/2000/svg">
<path d="M9.63083 1.09276C7.96375 1.32984 6.38351 1.984 5.03669 2.99455C3.68989 4.00511 2.62009 5.33935 1.92654 6.87355C1.23299 8.40774 0.938128 10.0922 1.06931 11.7707C1.20049 13.4492 1.75345 15.0675 2.67693 16.4753L1 20.9977L6.61543 19.9826C8.05937 20.6896 9.65274 21.0376 11.26 20.9968C12.8673 20.956 14.441 20.5279 15.8473 19.7486C17.2536 18.9693 18.4508 17.8619 19.3373 16.5208C20.2237 15.1796 20.7729 13.6442 20.9387 12.0451" stroke="black" stroke-linecap="round" stroke-linejoin="round"/>
<path d="M17.1538 8.69128C19.2781 8.69128 21 6.96952 21 4.84564C21 2.72175 19.2781 1 17.1538 1C15.0297 1 13.3077 2.72175 13.3077 4.84564C13.3077 6.96952 15.0297 8.69128 17.1538 8.69128Z" stroke="black" stroke-linecap="round" stroke-linejoin="round"/>
</svg>
