<svg width="20" height="42" viewBox="0 0 20 42" fill="none" xmlns="http://www.w3.org/2000/svg">
<path d="M11.0714 18C11.2686 18 11.4285 17.7761 11.4285 17.5C11.4285 17.2239 11.2686 17 11.0714 17C10.8741 17 10.7142 17.2239 10.7142 17.5C10.7142 17.7761 10.8741 18 11.0714 18Z" stroke="black" stroke-linecap="round" stroke-linejoin="round"/>
<path d="M11.0714 22.5C11.2686 22.5 11.4285 22.2761 11.4285 22C11.4285 21.7239 11.2686 21.5 11.0714 21.5C10.8741 21.5 10.7142 21.7239 10.7142 22C10.7142 22.2761 10.8741 22.5 11.0714 22.5Z" stroke="black" stroke-linecap="round" stroke-linejoin="round"/>
<path d="M11.0714 27C11.2686 27 11.4285 26.7761 11.4285 26.5C11.4285 26.2239 11.2686 26 11.0714 26C10.8741 26 10.7142 26.2239 10.7142 26.5C10.7142 26.7761 10.8741 27 11.0714 27Z" stroke="black" stroke-linecap="round" stroke-linejoin="round"/>
</svg>
