<svg width="22" height="22" viewBox="0 0 22 22" fill="none" xmlns="http://www.w3.org/2000/svg">
<g filter="url(#filter0_i_35_23)">
<path d="M17.0784 8.45555C19.2442 8.45555 21 6.73357 21 4.6094C21 2.48523 19.2442 0.763245 17.0784 0.763245C14.9126 0.763245 13.1569 2.48523 13.1569 4.6094C13.1569 6.73357 14.9126 8.45555 17.0784 8.45555Z" stroke="black" stroke-linecap="round" stroke-linejoin="round"/>
</g>
<path d="M15.7963 12.3017V14.661C15.7963 15.2628 16.04 15.8398 16.4739 16.2654C16.9076 16.6908 17.6414 16.9298 18.2549 16.9298H1C1.61353 16.9298 2.34726 16.6908 2.7811 16.2654C3.21492 15.8398 3.45865 15.2628 3.45865 14.661L3.45864 9.12111C3.45864 7.51651 4.10856 5.97762 5.26544 4.84298C6.42232 3.70835 7.99139 3.07092 9.62745 3.07092" stroke="black" stroke-linecap="round" stroke-linejoin="round"/>
<path d="M8.05881 20.7632H11.1961" stroke="black" stroke-linecap="round" stroke-linejoin="round"/>
<defs>
<filter id="filter0_i_35_23" x="12.6569" y="0.263245" width="18.8431" height="18.6923" filterUnits="userSpaceOnUse" color-interpolation-filters="sRGB">
<feFlood flood-opacity="0" result="BackgroundImageFix"/>
<feBlend mode="normal" in="SourceGraphic" in2="BackgroundImageFix" result="shape"/>
<feColorMatrix in="SourceAlpha" type="matrix" values="0 0 0 0 0 0 0 0 0 0 0 0 0 0 0 0 0 0 127 0" result="hardAlpha"/>
<feOffset dx="10" dy="10"/>
<feGaussianBlur stdDeviation="58.9"/>
<feComposite in2="hardAlpha" operator="arithmetic" k2="-1" k3="1"/>
<feColorMatrix type="matrix" values="0 0 0 0 0.925 0 0 0 0 0.0300622 0 0 0 0 0.0300622 0 0 0 1 0"/>
<feBlend mode="normal" in2="shape" result="effect1_innerShadow_35_23"/>
</filter>
</defs>
</svg>
