<svg width="20" height="20" viewBox="0 0 20 20" fill="none" xmlns="http://www.w3.org/2000/svg">
<g clip-path="url(#clip0_145_157)">
<rect width="20" height="20" fill="#5E5E5E" fill-opacity="0.2"/>
<path d="M9.9999 11.4286C11.9723 11.4286 13.5713 9.82958 13.5713 7.85713C13.5713 5.88469 11.9723 4.28571 9.9999 4.28571C8.02745 4.28571 6.42847 5.88469 6.42847 7.85713C6.42847 9.82958 8.02745 11.4286 9.9999 11.4286Z" stroke="black" stroke-linecap="round" stroke-linejoin="round"/>
<path d="M3.8999 17C4.53739 15.9536 5.43335 15.0887 6.50163 14.4887C7.56992 13.8886 8.7746 13.5734 9.9999 13.5734C11.2252 13.5734 12.4299 13.8886 13.4982 14.4887C14.5665 15.0887 15.4624 15.9536 16.0999 17" stroke="black" stroke-linecap="round" stroke-linejoin="round"/>
<path d="M9.99995 19.2857C15.1284 19.2857 19.2857 15.1284 19.2857 10C19.2857 4.87165 15.1284 0.714294 9.99995 0.714294C4.87159 0.714294 0.714233 4.87165 0.714233 10C0.714233 15.1284 4.87159 19.2857 9.99995 19.2857Z" stroke="black" stroke-linecap="round" stroke-linejoin="round"/>
</g>
<defs>
<clipPath id="clip0_145_157">
<rect width="20" height="20" fill="white"/>
</clipPath>
</defs>
</svg>
