<svg width="20" height="20" viewBox="0 0 20 20" fill="none" xmlns="http://www.w3.org/2000/svg">
<g clip-path="url(#clip0_103_51)">
<rect width="20" height="20" fill="#5E5E5E" fill-opacity="0.2"/>
<path d="M8.73366 0.835693C7.19179 1.055 5.73025 1.66011 4.48459 2.59489C3.23895 3.52968 2.2495 4.76388 1.60805 6.18304C0.966586 7.60219 0.693874 9.16035 0.8152 10.713C0.936527 12.2657 1.44796 13.7626 2.30207 15.0649L0.751099 19.2482L5.94475 18.3092C7.28023 18.9632 8.75392 19.285 10.2405 19.2473C11.727 19.2096 13.1825 18.8136 14.4832 18.0927C15.7839 17.3719 16.8912 16.3475 17.711 15.1069C18.5309 13.8663 19.0389 12.446 19.1922 10.9669" stroke="black" stroke-linecap="round" stroke-linejoin="round"/>
<path d="M15.6916 7.86446C17.6563 7.86446 19.2489 6.2718 19.2489 4.30717C19.2489 2.34253 17.6563 0.749878 15.6916 0.749878C13.727 0.749878 12.1343 2.34253 12.1343 4.30717C12.1343 6.2718 13.727 7.86446 15.6916 7.86446Z" stroke="black" stroke-linecap="round" stroke-linejoin="round"/>
</g>
<defs>
<clipPath id="clip0_103_51">
<rect width="20" height="20" fill="white"/>
</clipPath>
</defs>
</svg>
