<svg width="20" height="20" viewBox="0 0 20 20" fill="none" xmlns="http://www.w3.org/2000/svg">
<path fill-rule="evenodd" clip-rule="evenodd" d="M1.78426 10C1.78426 5.46261 5.46253 1.78431 9.9999 1.78431C14.5372 1.78431 18.2155 5.46261 18.2155 10C18.2155 14.5374 14.5372 18.2157 9.9999 18.2157C8.73593 18.2157 7.5409 17.9308 6.47336 17.4227C6.29276 17.3117 6.07222 17.2643 5.84722 17.305L5.83992 17.3063L2.2807 17.9498L3.25037 15.37C3.25132 15.3676 3.25224 15.3651 3.25317 15.3627L3.25462 15.3588C3.28324 15.2827 3.30079 15.205 3.30804 15.1277C3.31366 15.068 3.31313 15.0084 3.30683 14.9498C3.28866 14.781 3.22252 14.6206 3.11729 14.4883C2.27432 13.1984 1.78426 11.6578 1.78426 10ZM1.42516 15.1506C0.519469 13.6457 -0.0014524 11.8825 -0.0014524 10C-0.0014524 4.47639 4.4763 -0.00140381 9.9999 -0.00140381C15.5235 -0.00140381 20.0012 4.47639 20.0012 10C20.0012 15.5237 15.5235 20.0014 9.9999 20.0014C8.53143 20.0014 7.13479 19.6844 5.87657 19.1144L1.05028 19.9871C0.734055 20.0443 0.411497 19.9271 0.205689 19.6803C-0.000119737 19.4334 -0.0574276 19.0951 0.055633 18.7943L1.42516 15.1506Z" fill="black"/>
</svg>
