<svg width="20" height="20" viewBox="0 0 20 20" fill="none" xmlns="http://www.w3.org/2000/svg">
<path d="M18.0599 3.23706H1.93995C1.263 3.23706 0.714233 3.78583 0.714233 4.46277V15.5371C0.714233 16.214 1.263 16.7628 1.93995 16.7628H18.0599C18.7369 16.7628 19.2857 16.214 19.2857 15.5371V4.46277C19.2857 3.78583 18.7369 3.23706 18.0599 3.23706Z" stroke="black" stroke-linecap="round" stroke-linejoin="round"/>
<path d="M13.3705 8.39893H16.2088" stroke="black" stroke-linecap="round" stroke-linejoin="round"/>
<path d="M13.3705 11.2122H16.2088" stroke="black" stroke-linecap="round" stroke-linejoin="round"/>
<path d="M5.01025 8.86793C5.01025 10.1625 6.0597 11.2119 7.35425 11.2119C7.68152 11.2119 7.99313 11.1449 8.27607 11.0237C9.11234 10.6656 9.69824 9.83521 9.69824 8.86793C9.69824 7.57337 8.64881 6.52393 7.35425 6.52393C6.0597 6.52393 5.01025 7.57337 5.01025 8.86793Z" stroke="black" stroke-linecap="round" stroke-linejoin="round"/>
<path d="M3.79114 13.5333C4.16359 12.8248 4.68707 12.2393 5.31122 11.8331C5.93538 11.4268 6.63924 11.2134 7.35512 11.2134C8.07102 11.2134 8.77488 11.4268 9.39904 11.8331C10.0232 12.2393 10.5467 12.8248 10.9191 13.5333" stroke="black" stroke-linecap="round" stroke-linejoin="round"/>
</svg>
