<svg width="20" height="20" viewBox="0 0 20 20" fill="none" xmlns="http://www.w3.org/2000/svg">
<g clip-path="url(#clip0_615_172)">
<path d="M10.0003 19.107C4.97077 19.107 0.893555 15.0297 0.893555 10.0003C0.893555 4.97077 4.97077 0.893555 10.0003 0.893555C15.0297 0.893555 19.107 4.97077 19.107 10.0003C19.107 15.0297 15.0297 19.107 10.0003 19.107Z" fill="#5E5E5E"/>
<path fill-rule="evenodd" clip-rule="evenodd" d="M10 0.000488281C4.47745 0.000488281 0.000488281 4.47745 0.000488281 10C0.000488281 15.5226 4.47745 19.9996 10 19.9996C15.5226 19.9996 19.9996 15.5226 19.9996 10C19.9996 4.47745 15.5226 0.000488281 10 0.000488281ZM1.7862 10C1.7862 5.46366 5.46366 1.7862 10 1.7862C14.5364 1.7862 18.2139 5.46366 18.2139 10C18.2139 12.434 17.1552 14.6206 15.4734 16.1248C14.1631 14.5636 12.1973 13.5712 9.9997 13.5712C7.8023 13.5712 5.83665 14.5635 4.52638 16.1244C2.84468 14.6204 1.7862 12.4338 1.7862 10ZM5.5355 8.21408C5.5355 5.74852 7.53423 3.74979 9.99979 3.74979C12.4653 3.74979 14.4641 5.74852 14.4641 8.21408C14.4641 10.6796 12.4653 12.6784 9.99979 12.6784C7.53423 12.6784 5.5355 10.6796 5.5355 8.21408Z" fill="#FFFDFD"/>
</g>
<defs>
<clipPath id="clip0_615_172">
<rect width="20" height="20" fill="white"/>
</clipPath>
</defs>
</svg>
